<svg width="33" height="33" viewBox="0 0 33 33" fill="none" xmlns="http://www.w3.org/2000/svg">
<path d="M15.4233 3.1665L25.1539 6.2065C25.4253 6.29123 25.6625 6.46048 25.8309 6.68955C25.9993 6.91863 26.09 7.19553 26.0899 7.47984V9.83317H28.7566C29.1102 9.83317 29.4494 9.97365 29.6994 10.2237C29.9495 10.4737 30.0899 10.8129 30.0899 11.1665V21.8332C30.0899 22.1868 29.9495 22.5259 29.6994 22.776C29.4494 23.026 29.1102 23.1665 28.7566 23.1665L24.4633 23.1678C23.9473 23.8478 23.3206 24.4478 22.5966 24.9412L15.4233 29.8332L8.24993 24.9425C7.17329 24.2084 6.29226 23.2225 5.68344 22.0704C5.07463 20.9183 4.75646 19.6349 4.75659 18.3318V7.47984C4.75675 7.19576 4.84764 6.91916 5.01601 6.69035C5.18438 6.46154 5.42142 6.29249 5.69259 6.20784L15.4233 3.1665ZM15.4233 5.9585L7.42326 8.45984V18.3318C7.42307 19.1481 7.61026 19.9536 7.97041 20.6861C8.33056 21.4187 8.85407 22.0588 9.50059 22.5572L9.75259 22.7385L15.4233 26.6052L20.4659 23.1665H14.0899C13.7363 23.1665 13.3972 23.026 13.1471 22.776C12.8971 22.5259 12.7566 22.1868 12.7566 21.8332V11.1665C12.7566 10.8129 12.8971 10.4737 13.1471 10.2237C13.3972 9.97365 13.7363 9.83317 14.0899 9.83317H23.4233V8.45984L15.4233 5.9585ZM15.4233 16.4998V20.4998H27.4233V16.4998H15.4233ZM15.4233 13.8332H27.4233V12.4998H15.4233V13.8332Z" fill="#7182BD"/>
</svg>
