<svg width="33" height="33" viewBox="0 0 33 33" fill="none" xmlns="http://www.w3.org/2000/svg">
<g clip-path="url(#clip0_988_1827)">
<path d="M32.6705 7.75313C32.6024 7.32053 32.4044 6.91885 32.1028 6.60135C31.8012 6.28385 31.4102 6.06554 30.9816 5.97535L25.7638 4.82868C25.2043 4.70665 24.6251 4.70619 24.0653 4.82734C23.5056 4.94849 22.9784 5.18842 22.5194 5.53091L7.09717 16.7665L2.77717 16.5887C2.4299 16.5763 2.08754 16.6736 1.79871 16.8668C1.50989 17.06 1.28929 17.3393 1.16824 17.6651C1.0472 17.9908 1.03187 18.3464 1.12442 18.6813C1.21698 19.0163 1.41272 19.3135 1.68384 19.5309L6.12829 23.0242C6.66162 23.6731 7.01717 23.5487 15.8438 18.7398L16.6705 27.1131C16.6843 27.3415 16.7626 27.5614 16.8963 27.747C17.0301 27.9327 17.2138 28.0766 17.4261 28.162C17.5788 28.2224 17.7418 28.2526 17.9061 28.2509C18.2367 28.2408 18.5524 28.1113 18.795 27.8865L20.9194 25.9487C21.1309 25.7527 21.2742 25.4942 21.3283 25.2109L23.275 14.6331C26.4483 12.8553 29.4527 11.1842 31.595 9.96646C31.9782 9.75087 32.2865 9.42345 32.4787 9.02794C32.6709 8.63243 32.7378 8.18768 32.6705 7.75313ZM30.715 8.41979C28.4927 9.68202 25.3816 11.4509 22.0394 13.282L21.675 13.4865L19.6038 24.7487L18.2972 25.9398L17.3194 15.8953L16.1372 16.4998C9.76384 20.0553 7.6394 21.0865 6.91051 21.4065L3.08829 18.3753L7.60384 18.5709L23.6038 6.96202C23.8553 6.77399 24.1437 6.64118 24.45 6.57225C24.7564 6.50332 25.0738 6.49983 25.3816 6.56202L30.5816 7.68202C30.6617 7.69654 30.7351 7.73628 30.7911 7.79544C30.8471 7.8546 30.8827 7.93009 30.8927 8.01091C30.911 8.08912 30.9036 8.17114 30.8716 8.2448C30.8396 8.31846 30.7846 8.37983 30.715 8.41979Z" fill="#7182BD" stroke="#7182BD"/>
<path d="M7.0973 11.6467L10.2617 12.5356L11.7195 11.4778L8.16397 10.4467L9.76397 9.46895L14.6262 9.32673L16.6706 7.84229L9.76397 8.05562C9.54623 8.04384 9.32983 8.09639 9.14175 8.20673L6.80397 9.56673C6.6107 9.68122 6.45564 9.85037 6.35835 10.0528C6.26105 10.2553 6.22587 10.4821 6.25724 10.7045C6.28861 10.927 6.38513 11.1351 6.53462 11.3028C6.68412 11.4705 6.8799 11.5901 7.0973 11.6467Z" fill="#7182BD" stroke="#7182BD"/>
</g>
<defs>
<clipPath id="clip0_988_1827">
<rect width="32" height="32" fill="white" transform="translate(0.875 0.5)"/>
</clipPath>
</defs>
</svg>
