<svg width="33" height="33" viewBox="0 0 33 33" fill="none" xmlns="http://www.w3.org/2000/svg">
<path d="M16.125 1.08643L29.4583 5.75309V16.4998C29.4583 22.0024 26.0796 25.8491 22.9303 28.2371C21.0294 29.6651 18.9437 30.829 16.7303 31.6971C16.6917 31.712 16.6531 31.7267 16.6143 31.7411L16.581 31.7531L16.5716 31.7558L16.5676 31.7571C16.5663 31.7571 16.565 31.7571 16.125 30.4998L15.6836 31.7584L15.6783 31.7558L15.669 31.7531L15.6356 31.7398C15.4575 31.674 15.2806 31.6051 15.105 31.5331C13.0443 30.6833 11.0998 29.5754 9.31829 28.2358C6.17163 25.8504 2.79163 22.0038 2.79163 16.5011V5.75309L16.125 1.08643ZM16.125 30.4998L15.6836 31.7584L16.125 31.9131L16.5663 31.7584L16.125 30.4998ZM16.125 29.0704L16.137 29.0651C17.9821 28.3031 19.7235 27.3108 21.3196 26.1118C24.1703 23.9531 26.7916 20.7971 26.7916 16.4998V7.64643L16.125 3.91309L5.45829 7.64643V16.4998C5.45829 20.7971 8.07963 23.9504 10.9303 26.1131C12.53 27.314 14.2754 28.3086 16.125 29.0704ZM24.221 11.6238L14.793 21.0518L9.13563 15.3958L11.0223 13.5091L14.7916 17.2811L22.3343 9.73843L24.2196 11.6238H24.221Z" fill="#7182BD"/>
</svg>
