<svg width="35" height="35" viewBox="0 0 35 35" fill="none" xmlns="http://www.w3.org/2000/svg">
<path d="M14.25 0L0.25 4.8V14.544C0.25 22.624 6.2175 30.16 14.25 32C22.2825 30.16 28.25 22.624 28.25 14.544V4.8L14.25 0ZM24.75 14.544C24.75 20.944 20.2875 26.864 14.25 28.672C8.2125 26.864 3.75 20.96 3.75 14.544V7.024L14.25 3.424L24.75 7.024V14.544Z" fill="#7182BD"/>
<rect x="14.25" y="15" width="20" height="20" rx="10" fill="#FBFBFB"/>
<path d="M21.5834 24.3333H26.9167V23H21.5834V24.3333ZM27.5834 25V29H28.9167V25H27.5834ZM26.9167 29.6667H21.5834V31H26.9167V29.6667ZM20.9167 29V25H19.5834V29H20.9167ZM21.5834 29.6667C21.4066 29.6667 21.237 29.5964 21.112 29.4714C20.9869 29.3464 20.9167 29.1768 20.9167 29H19.5834C19.5834 29.5304 19.7941 30.0391 20.1692 30.4142C20.5442 30.7893 21.0529 31 21.5834 31V29.6667ZM27.5834 29C27.5834 29.1768 27.5131 29.3464 27.3881 29.4714C27.2631 29.5964 27.0935 29.6667 26.9167 29.6667V31C27.4471 31 27.9558 30.7893 28.3309 30.4142C28.706 30.0391 28.9167 29.5304 28.9167 29H27.5834ZM26.9167 24.3333C27.0935 24.3333 27.2631 24.4036 27.3881 24.5286C27.5131 24.6536 27.5834 24.8232 27.5834 25H28.9167C28.9167 24.4696 28.706 23.9609 28.3309 23.5858C27.9558 23.2107 27.4471 23 26.9167 23V24.3333ZM21.5834 23C21.0529 23 20.5442 23.2107 20.1692 23.5858C19.7941 23.9609 19.5834 24.4696 19.5834 25H20.9167C20.9167 24.8232 20.9869 24.6536 21.112 24.5286C21.237 24.4036 21.4066 24.3333 21.5834 24.3333V23ZM22.25 23.6667V22.3333H20.9167V23.6667H22.25ZM26.25 22.3333V23.6667H27.5834V22.3333H26.25ZM24.25 20.3333C24.7805 20.3333 25.2892 20.544 25.6643 20.9191C26.0393 21.2942 26.25 21.8029 26.25 22.3333H27.5834C27.5834 21.4493 27.2322 20.6014 26.6071 19.9763C25.9819 19.3512 25.1341 19 24.25 19V20.3333ZM22.25 22.3333C22.25 21.8029 22.4608 21.2942 22.8358 20.9191C23.2109 20.544 23.7196 20.3333 24.25 20.3333V19C23.366 19 22.5181 19.3512 21.893 19.9763C21.2679 20.6014 20.9167 21.4493 20.9167 22.3333H22.25Z" fill="#7182BD"/>
</svg>
