<svg width="28" height="33" viewBox="0 0 28 33" fill="none" xmlns="http://www.w3.org/2000/svg">
<path d="M11.2555 21.4863L11.2403 21.4544C11.0121 21.398 10.7859 21.3355 10.5619 21.267L10.545 21.2609C8.2131 20.5416 6.18896 19.1816 4.75628 17.3715C3.3236 15.5615 2.55417 13.3921 2.55585 11.1674C2.5551 8.43741 3.71406 5.81109 5.79401 3.8294C7.87397 1.84772 10.7165 0.661593 13.7362 0.51533C16.7558 0.369066 19.7227 1.27381 22.0255 3.0432C24.3284 4.81259 25.792 7.31188 26.1148 10.0263C26.1891 10.654 25.6153 11.1674 24.9166 11.1674C24.218 11.1674 23.6594 10.6525 23.5665 10.0278C23.3421 8.55345 22.6868 7.15962 21.668 5.9896C20.6493 4.81958 19.3038 3.91556 17.7698 3.37046C16.2359 2.82536 14.5688 2.65883 12.94 2.88799C11.3111 3.11716 9.77926 3.73375 8.5018 4.67439C7.22434 5.61504 6.24736 6.84581 5.67128 8.24021C5.0952 9.63462 4.94079 11.1424 5.22393 12.6085C5.50706 14.0746 6.21753 15.4462 7.28231 16.5824C8.34709 17.7185 9.72777 18.5782 11.2825 19.0731C11.5956 18.434 12.1426 17.9115 12.8318 17.5932C13.5209 17.2749 14.3103 17.1801 15.0676 17.3248C15.825 17.4694 16.5042 17.8446 16.9915 18.3876C17.4789 18.9306 17.7446 19.6083 17.7443 20.3071C17.7443 21.2182 17.3022 22.0348 16.6018 22.5924C15.9862 23.0852 15.1918 23.3568 14.3691 23.3557C13.7034 23.3573 13.0523 23.1804 12.498 22.8477C11.9437 22.5149 11.5113 22.0411 11.2555 21.4863ZM7.61361 22.594C6.37015 21.9934 5.23122 21.2311 4.23333 20.3315C3.30876 20.4286 2.45591 20.8289 1.83678 21.4564C1.21765 22.0839 0.875384 22.8948 0.875 23.7351V24.6157C0.875 25.9747 1.41166 27.291 2.39047 28.3255C5.03326 31.1197 9.05989 32.5 14.3691 32.5C19.6783 32.5 23.7066 31.1197 26.3545 28.3255C27.3356 27.2906 27.8748 25.9733 27.875 24.6111V23.7351C27.8752 23.2851 27.7773 22.8395 27.5867 22.4237C27.3962 22.0079 27.1168 21.6301 26.7645 21.3118C26.4123 20.9935 25.994 20.7409 25.5336 20.5685C25.0732 20.3962 24.5797 20.3073 24.0813 20.3071H20.2757C20.2757 21.1268 20.0732 21.9007 19.707 22.5924H24.0796C24.4153 22.5924 24.7372 22.7128 24.9746 22.9271C25.2119 23.1414 25.3453 23.432 25.3453 23.7351V24.6111C25.3451 25.4286 25.0213 26.2191 24.4323 26.8401C22.311 29.0766 18.9914 30.2132 14.3691 30.2132C9.74843 30.2132 6.4306 29.0766 4.31603 26.8416C3.72802 26.2208 3.40485 25.4309 3.40472 24.6142V23.7351C3.40472 23.432 3.53807 23.1414 3.77544 22.9271C4.0128 22.7128 4.33474 22.5924 4.67042 22.5924H7.61361V22.594ZM7.61867 11.1674C7.61898 10.1163 7.92046 9.08304 8.49381 8.16815C9.06717 7.25327 9.89291 6.48782 10.8908 5.94619C11.8887 5.40455 13.0248 5.10515 14.1887 5.07707C15.3527 5.04898 16.5049 5.29318 17.5334 5.78592C18.5619 6.27866 19.4318 7.0032 20.0584 7.88913C20.6851 8.77507 21.0473 9.79227 21.1098 10.8419C21.1723 11.8916 20.933 12.938 20.4151 13.8794C19.8973 14.8209 19.1185 15.6255 18.1544 16.2149C17.0933 15.4129 15.753 14.9744 14.3691 14.9763C15.488 14.9763 16.5612 14.575 17.3524 13.8607C18.1436 13.1464 18.5881 12.1776 18.5881 11.1674C18.5881 10.1573 18.1436 9.18846 17.3524 8.47417C16.5612 7.75987 15.488 7.35858 14.3691 7.35858C13.2501 7.35858 12.177 7.75987 11.3858 8.47417C10.5946 9.18846 10.1501 10.1573 10.1501 11.1674C10.1501 12.1776 10.5946 13.1464 11.3858 13.8607C12.177 14.575 13.2501 14.9763 14.3691 14.9763C12.9279 14.9763 11.6082 15.4425 10.5855 16.2149C9.6702 15.6579 8.9208 14.9061 8.40341 14.0259C7.88601 13.1456 7.61651 12.1639 7.61867 11.1674Z" fill="#7182BD"/>
</svg>
