<svg width="33" height="33" viewBox="0 0 33 33" fill="none" xmlns="http://www.w3.org/2000/svg">
<path d="M13.625 2.5C13.3598 2.5 13.1054 2.60536 12.9179 2.79289C12.7304 2.98043 12.625 3.23478 12.625 3.5C12.625 3.76522 12.7304 4.01957 12.9179 4.20711C13.1054 4.39464 13.3598 4.5 13.625 4.5H19.625C19.8902 4.5 20.1446 4.39464 20.3321 4.20711C20.5196 4.01957 20.625 3.76522 20.625 3.5C20.625 3.23478 20.5196 2.98043 20.3321 2.79289C20.1446 2.60536 19.8902 2.5 19.625 2.5H13.625ZM16.625 11.5C16.8902 11.5 17.1446 11.6054 17.3321 11.7929C17.5196 11.9804 17.625 12.2348 17.625 12.5V18.5C17.625 18.7652 17.5196 19.0196 17.3321 19.2071C17.1446 19.3946 16.8902 19.5 16.625 19.5C16.3598 19.5 16.1054 19.3946 15.9179 19.2071C15.7304 19.0196 15.625 18.7652 15.625 18.5V12.5C15.625 12.2348 15.7304 11.9804 15.9179 11.7929C16.1054 11.6054 16.3598 11.5 16.625 11.5ZM28.625 18.5C28.625 25.127 23.252 30.5 16.625 30.5C9.998 30.5 4.625 25.127 4.625 18.5C4.625 11.873 9.998 6.5 16.625 6.5C23.252 6.5 28.625 11.873 28.625 18.5ZM26.625 18.5C26.625 12.977 22.148 8.5 16.625 8.5C11.102 8.5 6.625 12.977 6.625 18.5C6.625 24.023 11.102 28.5 16.625 28.5C22.148 28.5 26.625 24.023 26.625 18.5ZM27.333 6.793C27.2408 6.69749 27.1304 6.62131 27.0084 6.5689C26.8864 6.51649 26.7552 6.4889 26.6224 6.48775C26.4896 6.4866 26.3579 6.5119 26.235 6.56218C26.1122 6.61246 26.0005 6.68671 25.9066 6.7806C25.8127 6.8745 25.7385 6.98615 25.6882 7.10905C25.6379 7.23194 25.6126 7.36362 25.6138 7.4964C25.6149 7.62918 25.6425 7.7604 25.6949 7.8824C25.7473 8.00441 25.8235 8.11475 25.919 8.207L27.919 10.207C28.0119 10.2998 28.1222 10.3735 28.2436 10.4237C28.3649 10.4739 28.495 10.4997 28.6264 10.4997C28.7577 10.4997 28.8878 10.4737 29.0091 10.4234C29.1304 10.3731 29.2407 10.2994 29.3335 10.2065C29.4263 10.1136 29.5 10.0033 29.5502 9.88193C29.6004 9.76057 29.6262 9.6305 29.6262 9.49915C29.6262 9.3678 29.6002 9.23774 29.5499 9.11641C29.4996 8.99508 29.4259 8.88484 29.333 8.792L27.333 6.792V6.793Z" fill="#7182BD" stroke="#7182BD"/>
</svg>
